<mxfile host="app.diagrams.net" modified="2023-09-27T07:05:44.750Z" agent="Mozilla/5.0 (Macintosh; Intel Mac OS X 10_15_7) AppleWebKit/537.36 (KHTML, like Gecko) Chrome/116.0.0.0 Safari/537.36" etag="sVzdEvW6H1HBI5_8ZLMl" version="21.8.2" type="github">
  <diagram name="第 1 页" id="CNol7LFETO978QtRRJPD">
    <mxGraphModel dx="1306" dy="680" grid="1" gridSize="10" guides="1" tooltips="1" connect="1" arrows="1" fold="1" page="1" pageScale="1" pageWidth="827" pageHeight="1169" math="0" shadow="0">
      <root>
        <mxCell id="0" />
        <mxCell id="1" parent="0" />
        <mxCell id="m_yNVobf2jPDf6pwSJ2R-40" style="edgeStyle=orthogonalEdgeStyle;rounded=0;orthogonalLoop=1;jettySize=auto;html=1;exitX=1;exitY=0.5;exitDx=0;exitDy=0;entryX=0;entryY=0.5;entryDx=0;entryDy=0;" parent="1" source="m_yNVobf2jPDf6pwSJ2R-1" target="m_yNVobf2jPDf6pwSJ2R-22" edge="1">
          <mxGeometry relative="1" as="geometry" />
        </mxCell>
        <mxCell id="m_yNVobf2jPDf6pwSJ2R-41" style="edgeStyle=orthogonalEdgeStyle;rounded=0;orthogonalLoop=1;jettySize=auto;html=1;exitX=1;exitY=0.5;exitDx=0;exitDy=0;entryX=0;entryY=0.5;entryDx=0;entryDy=0;" parent="1" source="m_yNVobf2jPDf6pwSJ2R-1" target="m_yNVobf2jPDf6pwSJ2R-21" edge="1">
          <mxGeometry relative="1" as="geometry" />
        </mxCell>
        <mxCell id="m_yNVobf2jPDf6pwSJ2R-1" value="payment" style="rounded=0;whiteSpace=wrap;html=1;" parent="1" vertex="1">
          <mxGeometry x="100" y="200" width="120" height="30" as="geometry" />
        </mxCell>
        <mxCell id="m_yNVobf2jPDf6pwSJ2R-42" style="edgeStyle=orthogonalEdgeStyle;rounded=0;orthogonalLoop=1;jettySize=auto;html=1;exitX=1;exitY=0.5;exitDx=0;exitDy=0;entryX=0;entryY=0.5;entryDx=0;entryDy=0;" parent="1" source="m_yNVobf2jPDf6pwSJ2R-2" target="m_yNVobf2jPDf6pwSJ2R-24" edge="1">
          <mxGeometry relative="1" as="geometry" />
        </mxCell>
        <mxCell id="m_yNVobf2jPDf6pwSJ2R-43" style="edgeStyle=orthogonalEdgeStyle;rounded=0;orthogonalLoop=1;jettySize=auto;html=1;exitX=1;exitY=0.5;exitDx=0;exitDy=0;entryX=0;entryY=0.5;entryDx=0;entryDy=0;" parent="1" source="m_yNVobf2jPDf6pwSJ2R-2" target="m_yNVobf2jPDf6pwSJ2R-25" edge="1">
          <mxGeometry relative="1" as="geometry" />
        </mxCell>
        <mxCell id="m_yNVobf2jPDf6pwSJ2R-2" value="booking" style="rounded=0;whiteSpace=wrap;html=1;" parent="1" vertex="1">
          <mxGeometry x="100" y="360" width="120" height="30" as="geometry" />
        </mxCell>
        <mxCell id="m_yNVobf2jPDf6pwSJ2R-32" style="edgeStyle=orthogonalEdgeStyle;rounded=0;orthogonalLoop=1;jettySize=auto;html=1;exitX=0.5;exitY=1;exitDx=0;exitDy=0;entryX=0.5;entryY=0;entryDx=0;entryDy=0;" parent="1" source="m_yNVobf2jPDf6pwSJ2R-21" target="m_yNVobf2jPDf6pwSJ2R-2" edge="1">
          <mxGeometry relative="1" as="geometry" />
        </mxCell>
        <mxCell id="m_yNVobf2jPDf6pwSJ2R-21" value="success" style="rounded=0;whiteSpace=wrap;html=1;" parent="1" vertex="1">
          <mxGeometry x="294" y="220" width="120" height="30" as="geometry" />
        </mxCell>
        <mxCell id="m_yNVobf2jPDf6pwSJ2R-27" value="" style="edgeStyle=orthogonalEdgeStyle;rounded=0;orthogonalLoop=1;jettySize=auto;html=1;" parent="1" source="m_yNVobf2jPDf6pwSJ2R-22" target="m_yNVobf2jPDf6pwSJ2R-26" edge="1">
          <mxGeometry relative="1" as="geometry">
            <Array as="points">
              <mxPoint x="530" y="175" />
            </Array>
          </mxGeometry>
        </mxCell>
        <mxCell id="m_yNVobf2jPDf6pwSJ2R-22" value="failed" style="rounded=0;whiteSpace=wrap;html=1;" parent="1" vertex="1">
          <mxGeometry x="294" y="160" width="120" height="30" as="geometry" />
        </mxCell>
        <mxCell id="m_yNVobf2jPDf6pwSJ2R-34" style="edgeStyle=orthogonalEdgeStyle;rounded=0;orthogonalLoop=1;jettySize=auto;html=1;exitX=1;exitY=0.5;exitDx=0;exitDy=0;entryX=0.5;entryY=1;entryDx=0;entryDy=0;" parent="1" source="m_yNVobf2jPDf6pwSJ2R-24" target="m_yNVobf2jPDf6pwSJ2R-26" edge="1">
          <mxGeometry relative="1" as="geometry" />
        </mxCell>
        <mxCell id="m_yNVobf2jPDf6pwSJ2R-24" value="failed" style="rounded=0;whiteSpace=wrap;html=1;" parent="1" vertex="1">
          <mxGeometry x="294" y="330" width="120" height="30" as="geometry" />
        </mxCell>
        <mxCell id="m_yNVobf2jPDf6pwSJ2R-31" value="" style="edgeStyle=orthogonalEdgeStyle;rounded=0;orthogonalLoop=1;jettySize=auto;html=1;" parent="1" source="m_yNVobf2jPDf6pwSJ2R-25" target="m_yNVobf2jPDf6pwSJ2R-30" edge="1">
          <mxGeometry relative="1" as="geometry" />
        </mxCell>
        <mxCell id="m_yNVobf2jPDf6pwSJ2R-25" value="success" style="rounded=0;whiteSpace=wrap;html=1;" parent="1" vertex="1">
          <mxGeometry x="294" y="390" width="120" height="30" as="geometry" />
        </mxCell>
        <mxCell id="m_yNVobf2jPDf6pwSJ2R-35" style="edgeStyle=orthogonalEdgeStyle;rounded=0;orthogonalLoop=1;jettySize=auto;html=1;exitX=1;exitY=0.5;exitDx=0;exitDy=0;entryX=0;entryY=0.5;entryDx=0;entryDy=0;" parent="1" source="m_yNVobf2jPDf6pwSJ2R-26" target="m_yNVobf2jPDf6pwSJ2R-33" edge="1">
          <mxGeometry relative="1" as="geometry" />
        </mxCell>
        <mxCell id="m_yNVobf2jPDf6pwSJ2R-38" style="edgeStyle=orthogonalEdgeStyle;rounded=0;orthogonalLoop=1;jettySize=auto;html=1;exitX=0.75;exitY=1;exitDx=0;exitDy=0;" parent="1" source="m_yNVobf2jPDf6pwSJ2R-26" target="m_yNVobf2jPDf6pwSJ2R-36" edge="1">
          <mxGeometry relative="1" as="geometry" />
        </mxCell>
        <mxCell id="m_yNVobf2jPDf6pwSJ2R-26" value="order failed" style="rounded=0;whiteSpace=wrap;html=1;fillColor=#f8cecc;strokeColor=#b85450;" parent="1" vertex="1">
          <mxGeometry x="494" y="270" width="120" height="30" as="geometry" />
        </mxCell>
        <mxCell id="m_yNVobf2jPDf6pwSJ2R-46" value="" style="edgeStyle=orthogonalEdgeStyle;rounded=0;orthogonalLoop=1;jettySize=auto;html=1;" parent="1" source="m_yNVobf2jPDf6pwSJ2R-30" target="m_yNVobf2jPDf6pwSJ2R-45" edge="1">
          <mxGeometry relative="1" as="geometry" />
        </mxCell>
        <mxCell id="m_yNVobf2jPDf6pwSJ2R-62" style="edgeStyle=orthogonalEdgeStyle;rounded=0;orthogonalLoop=1;jettySize=auto;html=1;exitX=1;exitY=0.5;exitDx=0;exitDy=0;entryX=0.25;entryY=0;entryDx=0;entryDy=0;" parent="1" source="m_yNVobf2jPDf6pwSJ2R-30" target="m_yNVobf2jPDf6pwSJ2R-36" edge="1">
          <mxGeometry relative="1" as="geometry" />
        </mxCell>
        <mxCell id="m_yNVobf2jPDf6pwSJ2R-30" value="order success" style="rounded=0;whiteSpace=wrap;html=1;fillColor=#d5e8d4;strokeColor=#82b366;" parent="1" vertex="1">
          <mxGeometry x="494" y="390" width="120" height="30" as="geometry" />
        </mxCell>
        <mxCell id="m_yNVobf2jPDf6pwSJ2R-33" value="unlock inventory" style="rounded=0;whiteSpace=wrap;html=1;" parent="1" vertex="1">
          <mxGeometry x="920" y="270" width="120" height="30" as="geometry" />
        </mxCell>
        <mxCell id="m_yNVobf2jPDf6pwSJ2R-36" value="sync order" style="rounded=0;whiteSpace=wrap;html=1;fillColor=#fff2cc;strokeColor=#d6b656;" parent="1" vertex="1">
          <mxGeometry x="740" y="390" width="120" height="30" as="geometry" />
        </mxCell>
        <mxCell id="m_yNVobf2jPDf6pwSJ2R-51" style="edgeStyle=orthogonalEdgeStyle;rounded=0;orthogonalLoop=1;jettySize=auto;html=1;exitX=1;exitY=0.5;exitDx=0;exitDy=0;entryX=0;entryY=0.5;entryDx=0;entryDy=0;" parent="1" source="m_yNVobf2jPDf6pwSJ2R-45" target="m_yNVobf2jPDf6pwSJ2R-47" edge="1">
          <mxGeometry relative="1" as="geometry" />
        </mxCell>
        <mxCell id="m_yNVobf2jPDf6pwSJ2R-52" style="edgeStyle=orthogonalEdgeStyle;rounded=0;orthogonalLoop=1;jettySize=auto;html=1;exitX=1;exitY=0.5;exitDx=0;exitDy=0;entryX=0;entryY=0.5;entryDx=0;entryDy=0;" parent="1" source="m_yNVobf2jPDf6pwSJ2R-45" target="m_yNVobf2jPDf6pwSJ2R-50" edge="1">
          <mxGeometry relative="1" as="geometry" />
        </mxCell>
        <mxCell id="m_yNVobf2jPDf6pwSJ2R-45" value="exchange" style="rounded=0;whiteSpace=wrap;html=1;" parent="1" vertex="1">
          <mxGeometry x="494" y="570" width="120" height="30" as="geometry" />
        </mxCell>
        <mxCell id="m_yNVobf2jPDf6pwSJ2R-54" style="edgeStyle=orthogonalEdgeStyle;rounded=0;orthogonalLoop=1;jettySize=auto;html=1;exitX=1;exitY=0.5;exitDx=0;exitDy=0;entryX=0.25;entryY=1;entryDx=0;entryDy=0;" parent="1" source="m_yNVobf2jPDf6pwSJ2R-47" target="m_yNVobf2jPDf6pwSJ2R-33" edge="1">
          <mxGeometry relative="1" as="geometry" />
        </mxCell>
        <mxCell id="m_yNVobf2jPDf6pwSJ2R-56" value="unlock old" style="edgeLabel;html=1;align=center;verticalAlign=middle;resizable=0;points=[];" parent="m_yNVobf2jPDf6pwSJ2R-54" vertex="1" connectable="0">
          <mxGeometry x="-0.6444" y="2" relative="1" as="geometry">
            <mxPoint y="2" as="offset" />
          </mxGeometry>
        </mxCell>
        <mxCell id="m_yNVobf2jPDf6pwSJ2R-65" style="edgeStyle=orthogonalEdgeStyle;rounded=0;orthogonalLoop=1;jettySize=auto;html=1;exitX=0.5;exitY=0;exitDx=0;exitDy=0;entryX=0.75;entryY=1;entryDx=0;entryDy=0;" parent="1" source="m_yNVobf2jPDf6pwSJ2R-47" target="m_yNVobf2jPDf6pwSJ2R-30" edge="1">
          <mxGeometry relative="1" as="geometry">
            <mxPoint x="640" y="480" as="targetPoint" />
          </mxGeometry>
        </mxCell>
        <mxCell id="m_yNVobf2jPDf6pwSJ2R-67" value="exchange" style="edgeLabel;html=1;align=center;verticalAlign=middle;resizable=0;points=[];" parent="m_yNVobf2jPDf6pwSJ2R-65" vertex="1" connectable="0">
          <mxGeometry x="0.0703" y="1" relative="1" as="geometry">
            <mxPoint as="offset" />
          </mxGeometry>
        </mxCell>
        <mxCell id="m_yNVobf2jPDf6pwSJ2R-47" value="success" style="rounded=0;whiteSpace=wrap;html=1;" parent="1" vertex="1">
          <mxGeometry x="670" y="530" width="120" height="30" as="geometry" />
        </mxCell>
        <mxCell id="m_yNVobf2jPDf6pwSJ2R-55" style="edgeStyle=orthogonalEdgeStyle;rounded=0;orthogonalLoop=1;jettySize=auto;html=1;exitX=1;exitY=0.5;exitDx=0;exitDy=0;entryX=0.75;entryY=1;entryDx=0;entryDy=0;" parent="1" source="m_yNVobf2jPDf6pwSJ2R-50" target="m_yNVobf2jPDf6pwSJ2R-33" edge="1">
          <mxGeometry relative="1" as="geometry" />
        </mxCell>
        <mxCell id="m_yNVobf2jPDf6pwSJ2R-57" value="unlock new" style="edgeLabel;html=1;align=center;verticalAlign=middle;resizable=0;points=[];" parent="m_yNVobf2jPDf6pwSJ2R-55" vertex="1" connectable="0">
          <mxGeometry x="-0.7533" y="-1" relative="1" as="geometry">
            <mxPoint x="14" y="-1" as="offset" />
          </mxGeometry>
        </mxCell>
        <mxCell id="m_yNVobf2jPDf6pwSJ2R-60" style="edgeStyle=isometricEdgeStyle;rounded=0;orthogonalLoop=1;jettySize=auto;html=1;exitX=0.5;exitY=1;exitDx=0;exitDy=0;entryX=0.25;entryY=1;entryDx=0;entryDy=0;" parent="1" source="m_yNVobf2jPDf6pwSJ2R-50" target="m_yNVobf2jPDf6pwSJ2R-30" edge="1">
          <mxGeometry relative="1" as="geometry">
            <Array as="points">
              <mxPoint x="500" y="640" />
            </Array>
          </mxGeometry>
        </mxCell>
        <mxCell id="m_yNVobf2jPDf6pwSJ2R-61" value="rollback order status&amp;nbsp;" style="edgeLabel;html=1;align=center;verticalAlign=middle;resizable=0;points=[];" parent="m_yNVobf2jPDf6pwSJ2R-60" vertex="1" connectable="0">
          <mxGeometry x="-0.7433" y="1" relative="1" as="geometry">
            <mxPoint as="offset" />
          </mxGeometry>
        </mxCell>
        <mxCell id="m_yNVobf2jPDf6pwSJ2R-50" value="failed" style="rounded=0;whiteSpace=wrap;html=1;" parent="1" vertex="1">
          <mxGeometry x="670" y="600" width="120" height="30" as="geometry" />
        </mxCell>
        <mxCell id="TskXjFS0CT3NaS_lkeDv-3" value="" style="edgeStyle=orthogonalEdgeStyle;rounded=0;orthogonalLoop=1;jettySize=auto;html=1;" edge="1" parent="1" source="TskXjFS0CT3NaS_lkeDv-1">
          <mxGeometry relative="1" as="geometry">
            <mxPoint x="300" y="65" as="targetPoint" />
          </mxGeometry>
        </mxCell>
        <mxCell id="TskXjFS0CT3NaS_lkeDv-1" value="create order" style="rounded=0;whiteSpace=wrap;html=1;" vertex="1" parent="1">
          <mxGeometry x="100" y="50" width="120" height="30" as="geometry" />
        </mxCell>
        <mxCell id="TskXjFS0CT3NaS_lkeDv-5" style="edgeStyle=orthogonalEdgeStyle;rounded=0;orthogonalLoop=1;jettySize=auto;html=1;exitX=1;exitY=0.5;exitDx=0;exitDy=0;entryX=0.75;entryY=0;entryDx=0;entryDy=0;" edge="1" parent="1" source="TskXjFS0CT3NaS_lkeDv-4" target="m_yNVobf2jPDf6pwSJ2R-26">
          <mxGeometry relative="1" as="geometry" />
        </mxCell>
        <mxCell id="TskXjFS0CT3NaS_lkeDv-6" value="cancel last order" style="edgeLabel;html=1;align=center;verticalAlign=middle;resizable=0;points=[];" vertex="1" connectable="0" parent="TskXjFS0CT3NaS_lkeDv-5">
          <mxGeometry x="-0.3007" y="1" relative="1" as="geometry">
            <mxPoint as="offset" />
          </mxGeometry>
        </mxCell>
        <mxCell id="TskXjFS0CT3NaS_lkeDv-7" value="Y" style="edgeLabel;html=1;align=center;verticalAlign=middle;resizable=0;points=[];" vertex="1" connectable="0" parent="TskXjFS0CT3NaS_lkeDv-5">
          <mxGeometry x="-0.7262" relative="1" as="geometry">
            <mxPoint as="offset" />
          </mxGeometry>
        </mxCell>
        <mxCell id="TskXjFS0CT3NaS_lkeDv-4" value="has pending order" style="rhombus;whiteSpace=wrap;html=1;" vertex="1" parent="1">
          <mxGeometry x="300" y="25" width="80" height="80" as="geometry" />
        </mxCell>
      </root>
    </mxGraphModel>
  </diagram>
</mxfile>
